<?xml version="1.0" encoding="utf-8"?>
<!-- Generator: Adobe Illustrator 22.0.1, SVG Export Plug-In . SVG Version: 6.00 Build 0)  -->
<svg version="1.1" id="linkedin" xmlns="http://www.w3.org/2000/svg" xmlns:xlink="http://www.w3.org/1999/xlink" x="0px" y="0px"
	 viewBox="0 0 100 100" style="enable-background:new 0 0 100 100;" xml:space="preserve">
<style type="text/css">
	.st0{fill:#0399FF;}
	.st1{fill-rule:evenodd;clip-rule:evenodd;fill:#FFFFFF;}
</style>
<circle class="st0" cx="50" cy="50" r="48"/>
<g>
	<path class="st1" d="M31.8,25.5h36.5c3.5,0,6.3,2.8,6.3,6.3v36.5c0,3.5-2.8,6.3-6.3,6.3H31.8c-3.5,0-6.3-2.8-6.3-6.3V31.8
		C25.5,28.3,28.3,25.5,31.8,25.5L31.8,25.5z M61.2,30.9c-1.2,0-2.2,1-2.2,2.2v5.3c0,1.2,1,2.2,2.2,2.2h5.5c1.2,0,2.2-1,2.2-2.2v-5.3
		c0-1.2-1-2.2-2.2-2.2H61.2L61.2,30.9z M69,46.2h-4.3c0.4,1.3,0.6,2.7,0.6,4.2c0,8.2-6.8,14.8-15.2,14.8c-8.4,0-15.2-6.6-15.2-14.8
		c0-1.5,0.2-2.9,0.6-4.2h-4.5v20.7c0,1.1,0.9,1.9,1.9,1.9H67c1.1,0,1.9-0.9,1.9-1.9V46.2L69,46.2z M50,40.3c-5.4,0-9.9,4.3-9.9,9.5
		c0,5.3,4.4,9.5,9.9,9.5c5.4,0,9.9-4.3,9.9-9.5C59.9,44.6,55.5,40.3,50,40.3z"/>
</g>
</svg>
